# xmcd CD database file
#
# Track frame offsets:
#	150
#	13922
#	26726
#	42357
#	56052
#	69806
#	82984
#	91936
#	107304
#	119616
#	134316
#	149030
#	157606
#	166535
#	179127
#	193866
#	218262
#	236693
#	248472
#	260972
#	271070
#	281419
#	293625
#	320071
#
# Disc length: 4489 seconds
#
# Revision: 0
# Processed by: cddbd v1.5.2PL0 Copyright (c) Steve Scherf et al.
# Submitted via: CDex 1.70beta2
#
DISCID=53118718
DTITLE=Dr Feelgood - Tore Down el pumpkino magnifico
DYEAR=1991
DGENRE=Blues
TTITLE0=Dr Feelgood-01-Tore Down-Tore Down
TTITLE1=Dr Feelgood-02-Checking Up On My Baby-Tore Down
TTITLE2=Dr Feelgood-03-She Does It Right-Tore Down
TTITLE3=Dr Feelgood-04-Roxette-Tore Down
TTITLE4=Dr Feelgood-05-All Through The City-Tore Down
TTITLE5=Dr Feelgood-06-Talk To Me Baby-Tore Down
TTITLE6=Dr Feelgood-07-I Don't Mind-Tore Down
TTITLE7=Dr Feelgood-08-Route 66-Tore Down
TTITLE8=Dr Feelgood-09-I Can Tell-Tore Down
TTITLE9=Dr Feelgood-10-Rolling And Tumbling-Tore Down
TTITLE10=Dr Feelgood-11-You Shouldn't Call The Doctor If You Can't Afford The Bills-Tore Down
TTITLE11=Dr Feelgood-12-Lights Out-Tore Down
TTITLE12=Dr Feelgood-13-She's A Wind Up-Tore Down
TTITLE13=Dr Feelgood-14-That's It I Quit-Tore Down
TTITLE14=Dr Feelgood-15-Down At The Doctors-Tore Down
TTITLE15=Dr Feelgood-16-Night Time-Tore Down
TTITLE16=Dr Feelgood-17-Sugar Shaker-Tore Down
TTITLE17=Dr Feelgood-18-Best In The World-Tore Down
TTITLE18=Dr Feelgood-19-Punch Drunk-Tore Down
TTITLE19=Dr Feelgood-20-No Mo Do Yakamo-Tore Down
TTITLE20=Dr Feelgood-21-Monkey-Tore Down
TTITLE21=Dr Feelgood-22-You Got My Number-Tore Down
TTITLE22=Dr Feelgood-23-Down By The Jetty Blues-Tore Down
TTITLE23=Dr Feelgood-24-If My Baby Quit Me-Tore Down
EXTD=YEAR: 1991
EXTT0=
EXTT1=
EXTT2=
EXTT3=
EXTT4=
EXTT5=
EXTT6=
EXTT7=
EXTT8=
EXTT9=
EXTT10=
EXTT11=
EXTT12=
EXTT13=
EXTT14=
EXTT15=
EXTT16=
EXTT17=
EXTT18=
EXTT19=
EXTT20=
EXTT21=
EXTT22=
EXTT23=
PLAYORDER=
